Coordinates
version=1
nRows=18
nColumns=22
inDegrees=yes

Units are S.I. units (second, meters, Newtons, ...)
If the header above contains a line with 'inDegrees', this indicates whether rotational values are in degrees (yes) or radians (no).

endheader
time	pelvis_tilt	pelvis_list	pelvis_rotation	pelvis_tx	pelvis_ty	pelvis_tz	hip_flexion_r	hip_adduction_r	hip_rotation_r	knee_angle_r	ankle_angle_r	subtalar_angle_r	hip_flexion_l	hip_adduction_l	hip_rotation_l	knee_angle_l	ankle_angle_l	subtalar_angle_l	lumbar_extension	lumbar_bending	lumbar_rotation
      0.01000000	      6.69529609	     -3.53460746	      5.32760533	     -1.39071805	      0.95715195	      0.05485712	     -6.81194360	      5.15316060	    -10.79803890	     -7.20517123	      8.12126050	      1.18577126	     -2.80446830	     -4.36159348	    -10.39548752	    -17.19024673	     20.77694686	     -8.66317974	    -10.91769449	      3.90119243	     -9.54609165
      0.02000000	      6.69088749	     -3.54180906	      5.32260614	     -1.39069524	      0.95714530	      0.05480306	     -6.81171483	      5.15656918	    -10.79924724	     -7.19885011	      8.12519012	      1.18630540	     -2.80477998	     -4.36383195	    -10.39380181	    -17.18556492	     20.77383692	     -8.66445759	    -10.92775842	      3.89329556	     -9.55118369
      0.03000000	      6.71614724	     -3.52797355	      5.31565482	     -1.39061485	      0.95719482	      0.05470679	     -6.86085853	      5.13873741	    -10.78910836	     -7.17282817	      8.16738144	      1.19404660	     -2.86774020	     -4.33618054	    -10.38379520	    -17.13206532	     20.72820391	     -8.69256342	    -10.96531849	      3.86706418	     -9.56503597
      0.04000000	      6.70857199	     -3.53411609	      5.30491316	     -1.39054162	      0.95718541	      0.05462595	     -6.85579587	      5.13658890	    -10.79504857	     -7.17568311	      8.15608584	      1.19394003	     -2.87883934	     -4.33409034	    -10.40401280	    -17.10756090	     20.73758653	     -8.69542564	    -10.96440289	      3.85652512	     -9.56975399
      0.05000000	      6.70214533	     -3.54147964	      5.29593083	     -1.39049244	      0.95717449	      0.05453028	     -6.85294476	      5.13566586	    -10.79701537	     -7.17227539	      8.15481816	      1.19403019	     -2.87963026	     -4.33200817	    -10.40779378	    -17.10220373	     20.73877805	     -8.69586970	    -10.97063701	      3.84997219	     -9.57189468
      0.06000000	      6.69004515	     -3.54106870	      5.27492555	     -1.39038303	      0.95716422	      0.05443619	     -6.84697277	      5.12326154	    -10.79702290	     -7.17211942	      8.14384091	      1.19459525	     -2.89794743	     -4.31835921	    -10.44753509	    -17.06132435	     20.74654235	     -8.69916708	    -10.95562650	      3.83665548	     -9.57905916
      0.07000000	      6.68215438	     -3.53992498	      5.25015673	     -1.39030277	      0.95715988	      0.05435943	     -6.84160520	      5.11024457	    -10.78664142	     -7.17482637	      8.13538576	      1.19628763	     -2.91340186	     -4.30472869	    -10.47721824	    -17.03388399	     20.74693584	     -8.70314178	    -10.95297698	      3.82172000	     -9.57911688
      0.08000000	      6.67710429	     -3.54655397	      5.24044869	     -1.39025161	      0.95715442	      0.05428852	     -6.83957471	      5.11073191	    -10.78685019	     -7.17200332	      8.13504063	      1.19662474	     -2.91442879	     -4.30343353	    -10.47975339	    -17.03044444	     20.74664073	     -8.70360467	    -10.95839866	      3.81556466	     -9.58279055
      0.09000000	      6.66850910	     -3.54810390	      5.22051873	     -1.39016174	      0.95714990	      0.05422513	     -6.83542895	      5.10332889	    -10.77455498	     -7.17214130	      8.12879739	      1.19868339	     -2.92921077	     -4.29531959	    -10.51201676	    -17.00159983	     20.74627764	     -8.70717034	    -10.95094246	      3.80857564	     -9.60746219
      0.10000000	      6.66309200	     -3.55381384	      5.20879704	     -1.39011167	      0.95714666	      0.05418368	     -6.83283990	      5.10433283	    -10.77410476	     -7.16862988	      8.12810024	      1.19912557	     -2.93013240	     -4.29531037	    -10.51421038	    -16.99896019	     20.74595058	     -8.70762664	    -10.95744720	      3.80161062	     -9.61303189
      0.11000000	      6.65754764	     -3.54986806	      5.17949295	     -1.39002696	      0.95715301	      0.05416859	     -6.83712068	      5.09442612	    -10.72852896	     -7.15811944	      8.11172023	      1.20722025	     -2.94707699	     -4.28476329	    -10.55852906	    -16.97608522	     20.73775317	     -8.71622206	    -10.95874326	      3.78534049	     -9.62828452
      0.12000000	      6.65212632	     -3.55609178	      5.16776397	     -1.38997558	      0.95714982	      0.05414319	     -6.83430509	      5.09668904	    -10.72906540	     -7.15505634	      8.11161551	      1.20752699	     -2.94774690	     -4.28681049	    -10.55875301	    -16.97426377	     20.73788002	     -8.71641948	    -10.96613483	      3.78091417	     -9.63656607
      0.13000000	      6.64691506	     -3.56324662	      5.15662479	     -1.38990466	      0.95714890	      0.05411117	     -6.83244805	      5.09965197	    -10.71646215	     -7.15547545	      8.10823435	      1.20871148	     -2.95366281	     -4.29034128	    -10.57305657	    -16.96478719	     20.73968513	     -8.71823448	    -10.96817042	      3.78402113	     -9.67556246
      0.14000000	      6.64159248	     -3.56843468	      5.14595452	     -1.38984847	      0.95714391	      0.05409248	     -6.83146122	      5.10128600	    -10.71682608	     -7.15099758	      8.10796772	      1.20896433	     -2.95347272	     -4.29246666	    -10.57288981	    -16.96532031	     20.74005337	     -8.71849177	    -10.97375921	      3.77902358	     -9.68210364
      0.15000000	      6.63653462	     -3.57343261	      5.13413785	     -1.38978617	      0.95713925	      0.05406994	     -6.83187765	      5.10205983	    -10.71606912	     -7.14645599	      8.10760821	      1.20927515	     -2.95397259	     -4.29387092	    -10.57387800	    -16.96667189	     20.74068430	     -8.71899981	    -10.97654753	      3.77580527	     -9.69135071
      0.16000000	      6.63171142	     -3.57812847	      5.12252199	     -1.38971850	      0.95713282	      0.05404232	     -6.83406342	      5.10206292	    -10.71424647	     -7.14118998	      8.10736662	      1.20980679	     -2.95472119	     -4.29487089	    -10.57626719	    -16.96866710	     20.74170111	     -8.71992312	    -10.97618056	      3.77344915	     -9.70149752
      0.17000000	      6.62196338	     -3.58112331	      5.11637221	     -1.38962719	      0.95711748	      0.05399629	     -6.84467245	      5.10223876	    -10.69523969	     -7.11448600	      8.10693027	      1.21458200	     -2.95069905	     -4.29572305	    -10.60031153	    -16.97016973	     20.74951976	     -8.72722631	    -10.96213772	      3.77210939	     -9.72598181
      0.18000000	      6.61874203	     -3.58579802	      5.10648651	     -1.38956040	      0.95710880	      0.05396314	     -6.84838123	      5.10172310	    -10.69543043	     -7.11226701	      8.10689357	      1.21542454	     -2.95187740	     -4.29713763	    -10.59852722	    -16.97442959	     20.75017061	     -8.72800452	    -10.96030360	      3.76881743	     -9.72578484
